<svg xmlns="http://www.w3.org/2000/svg" viewBox="0 0 512 512"><title>Logout</title><g id="Logout"><g id="Logout-2" data-name="Logout"><path d="M256,73.8247a182.18,182.18,0,0,0-182.18,182.18c0,100.6173,81.567,182.1708,182.18,182.1708a182.1753,182.1753,0,1,0,0-364.3506Zm-18.0963,86.2209a18.0986,18.0986,0,0,1,36.1971,0V214.02a18.0986,18.0986,0,0,1-36.1971,0ZM256,348.5884a92.4129,92.4129,0,0,1-32.9634-178.7517v33.381a62.4533,62.4533,0,1,0,65.9313,0v-33.381A92.4149,92.4149,0,0,1,256,348.5884Z"/></g></g></svg>